Coordinates
version=1
nRows=8
nColumns=40
inDegrees=yes

Units are S.I. units (second, meters, Newtons, ...)
Angles are in degrees.

endheader
time	pelvis_tilt	pelvis_list	pelvis_rotation	pelvis_tx	pelvis_ty	pelvis_tz	hip_flexion_r	hip_adduction_r	hip_rotation_r	knee_angle_r	knee_angle_r_beta	ankle_angle_r	subtalar_angle_r	mtp_angle_r	hip_flexion_l	hip_adduction_l	hip_rotation_l	knee_angle_l	knee_angle_l_beta	ankle_angle_l	subtalar_angle_l	mtp_angle_l	lumbar_extension	lumbar_bending	lumbar_rotation	arm_flex_r	arm_add_r	arm_rot_r	elbow_flex_r	pro_sup_r	wrist_flex_r	wrist_dev_r	arm_flex_l	arm_add_l	arm_rot_l	elbow_flex_l	pro_sup_l	wrist_flex_l	wrist_dev_l
      8.44000000	     -1.37662831	     -5.73712994	      3.71211665	      0.93577654	      0.93498083	      0.49597287	      9.19770241	      4.58611719	    -18.39334296	     13.36842846	     13.36842846	      9.09911065	      5.38051297	     -6.00317249	     28.95206286	    -13.87533933	     -3.16119716	     59.59340479	     59.59340479	     13.81627937	    -19.06366092	     17.64165130	    -10.25727869	      9.06913630	      4.91997453	     20.18325943	    -14.30580312	     -4.63032030	     44.59480794	     44.55969848	      0.00000000	      0.00000000	      3.68267286	     -7.71828553	      4.00846032	     41.12675509	     44.77722375	      0.00000000	      0.00000000
      8.45285714	     -1.50672242	     -5.59045554	      3.99561576	      0.93397924	      0.93495703	      0.49566200	      8.77065486	      4.48442160	    -18.42896987	     13.14951226	     13.14951226	      9.38271924	      5.24059347	     -6.05988948	     30.31071313	    -13.45681794	     -2.86202033	     57.36865738	     57.36865738	     13.80052604	    -19.09002826	     17.65207148	    -10.25463251	      8.90230014	      4.78180811	     22.22609542	    -14.50443075	     -4.68341376	     46.13418806	     44.52556893	      0.00000000	      0.00000000	      2.34597560	     -7.74547761	      4.10775977	     40.05088607	     44.75731009	      0.00000000	      0.00000000
      8.46571429	     -1.55622505	     -5.58407369	      4.29575508	      0.93235360	      0.93498359	      0.49544134	      8.18815612	      4.60317664	    -18.35548705	     12.75437087	     12.75437087	      9.46837927	      4.82071639	     -6.27546700	     31.34856897	    -13.16691777	     -2.54375245	     54.74789653	     54.74789653	     13.38856474	    -19.07625346	     16.84269101	    -10.37750900	      8.94270602	      4.83831670	     22.84831661	    -15.27946869	     -3.30227304	     51.39167736	     44.35313505	      0.00000000	      0.00000000	      2.08425793	     -7.40464773	      3.68327565	     36.20747597	     44.89894242	      0.00000000	      0.00000000
      8.47857143	     -1.61383331	     -5.51039183	      4.58495471	      0.93069751	      0.93497294	      0.49514918	      7.65708669	      4.61544473	    -18.26057611	     12.45966562	     12.45966562	      9.67526349	      4.59583138	     -6.28295354	     32.19263660	    -12.68579566	     -2.12910748	     51.87907639	     51.87907639	     13.21637562	    -19.04768020	     17.01691451	    -10.47502028	      8.85170053	      4.32873687	     24.82806755	    -15.07235380	     -3.33798578	     53.62281114	     44.30667634	      0.00000000	      0.00000000	      0.77303139	     -7.55105211	      3.73609053	     34.69392272	     44.89600137	      0.00000000	      0.00000000
      8.49142857	     -1.75254851	     -5.44043280	      4.85475395	      0.92904061	      0.93475972	      0.49470093	      7.19721494	      4.63542795	    -18.21781606	     12.10713698	     12.10713698	      9.85089577	      4.21724070	     -6.44287577	     32.95812929	    -12.22024976	     -1.86530628	     48.80368285	     48.80368285	     12.67634671	    -18.96876100	     16.58932839	    -10.51947328	      8.83599421	      4.88736860	     25.51705682	    -16.12821501	     -2.97931609	     57.83320969	     44.23419535	      0.00000000	      0.00000000	      0.59023307	     -7.17297260	      3.42002396	     31.75050041	     45.02239408	      0.00000000	      0.00000000
      8.50428571	     -1.88807460	     -5.39475294	      5.10835597	      0.92742231	      0.93451367	      0.49423189	      6.75472162	      4.65783004	    -18.21898395	     11.79828091	     11.79828091	     10.03360522	      4.04226561	     -6.53538233	     33.54833423	    -11.70341611	     -1.49156949	     45.54242361	     45.54242361	     12.10485497	    -18.83363836	     16.19671378	    -10.57435166	      8.79837331	      4.96360592	     26.72324361	    -16.46172796	     -3.19853122	     61.08439803	     44.22950605	      0.00000000	      0.00000000	     -0.09002277	     -7.07893118	      3.16383691	     29.75203878	     45.12537923	      0.00000000	      0.00000000
      8.51714286	     -2.05593444	     -5.29841560	      5.34822733	      0.92585201	      0.93422804	      0.49362815	      6.35097978	      4.60746404	    -18.22480158	     11.51684936	     11.51684936	     10.26182014	      3.91183067	     -6.55280586	     34.02730762	    -11.07090308	     -1.05662809	     42.18698144	     42.18698144	     11.71333654	    -18.57256206	     16.48340856	    -10.55410088	      8.67672712	      4.69007330	     28.47938952	    -16.38514488	     -3.35992966	     62.83090493	     44.19675092	      0.00000000	      0.00000000	     -1.26196059	     -7.21334832	      3.17674485	     28.84139532	     45.11540521	      0.00000000	      0.00000000
      8.53000000	     -2.30757113	     -5.50119902	      5.56349726	      0.92427746	      0.93352205	      0.49310652	      6.15492494	      4.84202995	    -18.33083527	     11.39949604	     11.39949604	     10.49464474	      3.82230459	     -6.63470679	     34.69171260	    -10.81717340	     -0.62621367	     39.04948884	     39.04948884	     11.56860670	    -17.66000073	     16.71571794	    -10.38209068	      8.88298111	      4.83603595	     30.11025367	    -16.76593896	     -3.57941967	     64.03363095	     44.17663564	      0.00000000	      0.00000000	     -2.29928053	     -7.27582960	      3.17379087	     28.25761990	     45.10328085	      0.00000000	      0.00000000
